<?xml version="1.0" encoding="utf-8"?>
<!-- Generator: Adobe Illustrator 21.1.0, SVG Export Plug-In . SVG Version: 6.00 Build 0)  -->
<svg version="1.1" id="圖層_1" xmlns="http://www.w3.org/2000/svg" xmlns:xlink="http://www.w3.org/1999/xlink" x="0px" y="0px"
	 viewBox="0 0 170 36" style="enable-background:new 0 0 170 36;" xml:space="preserve">
<style type="text/css">
	.st0{clip-path:url(#SVGID_2_);}
	.st1{clip-path:url(#SVGID_4_);fill:#00CC99;}
	.st2{clip-path:url(#SVGID_6_);}
	.st3{clip-path:url(#SVGID_8_);fill:#00CC99;}
	.st4{clip-path:url(#SVGID_10_);}
	.st5{clip-path:url(#SVGID_12_);fill:#00CC99;}
	.st6{clip-path:url(#SVGID_14_);}
	.st7{clip-path:url(#SVGID_16_);fill:#00CC99;}
	.st8{clip-path:url(#SVGID_18_);}
	.st9{clip-path:url(#SVGID_20_);fill:#00CC99;}
	.st10{clip-path:url(#SVGID_22_);}
	.st11{clip-path:url(#SVGID_24_);fill:#00CC99;}
	.st12{clip-path:url(#SVGID_26_);}
	.st13{clip-path:url(#SVGID_28_);fill:#00CC99;}
	.st14{clip-path:url(#SVGID_30_);}
	.st15{clip-path:url(#SVGID_32_);fill:#00CC99;}
	.st16{clip-path:url(#SVGID_34_);}
	.st17{clip-path:url(#SVGID_36_);fill:#00CC99;}
	.st18{clip-path:url(#SVGID_38_);}
	.st19{clip-path:url(#SVGID_40_);fill:#00CC99;}
	.st20{clip-path:url(#SVGID_42_);}
	.st21{clip-path:url(#SVGID_44_);fill:#00CC99;}
	.st22{clip-path:url(#SVGID_46_);}
	.st23{clip-path:url(#SVGID_48_);fill:#00CC99;}
	.st24{clip-path:url(#SVGID_50_);}
	.st25{clip-path:url(#SVGID_52_);fill:#00CC99;}
</style>
<g>
	<defs>
		<rect id="SVGID_1_" x="-42" y="-33" width="1024" height="1758"/>
	</defs>
	<clipPath id="SVGID_2_">
		<use xlink:href="#SVGID_1_"  style="overflow:visible;"/>
	</clipPath>
	<g class="st0">
		<defs>
			<path id="SVGID_3_" d="M36,18.7l-7.5,13.1c-0.2,0.3-0.8,0.7-1.2,0.7h-15c-0.3,0-1-0.4-1.2-0.7L3.7,18.7c-0.2-0.3-0.2-1.1,0-1.4
				l7.5-13.1c0.2-0.3,0.8-0.7,1.2-0.7h15c0.3,0,1,0.4,1.2,0.7L36,17.3C36.2,17.6,36.2,18.4,36,18.7z M39.2,16l-8-13.9
				c-0.6-1.1-2.2-2-3.4-2H11.9c-1.3,0-2.8,0.9-3.4,2L0.5,16c-0.6,1.1-0.6,2.9,0,4l8,13.9c0.6,1.1,2.2,2,3.4,2h15.9
				c1.3,0,2.8-0.9,3.4-2l8-13.9C39.9,18.9,39.9,17.1,39.2,16z"/>
		</defs>
		<clipPath id="SVGID_4_">
			<use xlink:href="#SVGID_3_"  style="overflow:visible;"/>
		</clipPath>
		<rect x="-5" y="-4.9" class="st1" width="49.7" height="45.9"/>
	</g>
</g>
<g>
	<defs>
		<rect id="SVGID_5_" x="-42" y="-33" width="1024" height="1758"/>
	</defs>
	<clipPath id="SVGID_6_">
		<use xlink:href="#SVGID_5_"  style="overflow:visible;"/>
	</clipPath>
	<g class="st2">
		<defs>
			<rect id="SVGID_7_" x="8" y="18.3" width="11.8" height="2.5"/>
		</defs>
		<clipPath id="SVGID_8_">
			<use xlink:href="#SVGID_7_"  style="overflow:visible;"/>
		</clipPath>
		<rect x="3" y="13.3" class="st3" width="21.8" height="12.5"/>
	</g>
</g>
<g>
	<defs>
		<rect id="SVGID_9_" x="-42" y="-33" width="1024" height="1758"/>
	</defs>
	<clipPath id="SVGID_10_">
		<use xlink:href="#SVGID_9_"  style="overflow:visible;"/>
	</clipPath>
	<g class="st4">
		<defs>
			<rect id="SVGID_11_" x="10.3" y="22.8" width="9.5" height="2.5"/>
		</defs>
		<clipPath id="SVGID_12_">
			<use xlink:href="#SVGID_11_"  style="overflow:visible;"/>
		</clipPath>
		<rect x="5.3" y="17.8" class="st5" width="19.5" height="12.5"/>
	</g>
</g>
<g>
	<defs>
		<rect id="SVGID_13_" x="-42" y="-33" width="1024" height="1758"/>
	</defs>
	<clipPath id="SVGID_14_">
		<use xlink:href="#SVGID_13_"  style="overflow:visible;"/>
	</clipPath>
	<g class="st6">
		<defs>
			<rect id="SVGID_15_" x="12.7" y="27.4" width="7.2" height="2.5"/>
		</defs>
		<clipPath id="SVGID_16_">
			<use xlink:href="#SVGID_15_"  style="overflow:visible;"/>
		</clipPath>
		<rect x="7.7" y="22.4" class="st7" width="17.2" height="12.5"/>
	</g>
</g>
<g>
	<defs>
		<rect id="SVGID_17_" x="-42" y="-33" width="1024" height="1758"/>
	</defs>
	<clipPath id="SVGID_18_">
		<use xlink:href="#SVGID_17_"  style="overflow:visible;"/>
	</clipPath>
	<g class="st8">
		<defs>
			<polyline id="SVGID_19_" points="60.2,28 56.9,28 56.9,19.2 48.1,19.2 48.1,28 44.8,28 44.8,8.3 48.1,8.3 48.1,16.5 56.9,16.5 
				56.9,8.3 60.2,8.3 60.2,28 			"/>
		</defs>
		<clipPath id="SVGID_20_">
			<use xlink:href="#SVGID_19_"  style="overflow:visible;"/>
		</clipPath>
		<rect x="39.8" y="3.3" class="st9" width="25.5" height="29.7"/>
	</g>
</g>
<g>
	<defs>
		<rect id="SVGID_21_" x="-42" y="-33" width="1024" height="1758"/>
	</defs>
	<clipPath id="SVGID_22_">
		<use xlink:href="#SVGID_21_"  style="overflow:visible;"/>
	</clipPath>
	<g class="st10">
		<defs>
			<path id="SVGID_23_" d="M68.3,15.7c-0.9,0-1.6,0.3-2.2,0.9c-0.5,0.6-0.9,1.5-1.1,2.6h6.2v-0.2c0-0.4-0.1-0.8-0.2-1.2
				c-0.1-0.4-0.3-0.8-0.5-1.1c-0.2-0.3-0.5-0.6-0.9-0.7C69.3,15.8,68.9,15.7,68.3,15.7z M68.7,28.3c-1.1,0-2-0.2-2.9-0.5
				c-0.9-0.4-1.6-0.9-2.2-1.5c-0.6-0.6-1.1-1.4-1.4-2.2c-0.3-0.9-0.5-1.8-0.5-2.8v-0.5c0-1.2,0.2-2.2,0.5-3.1
				c0.3-0.9,0.8-1.7,1.4-2.4c0.6-0.7,1.3-1.2,2.1-1.5c0.8-0.4,1.7-0.5,2.6-0.5c1.1,0,2,0.2,2.7,0.5c0.8,0.4,1.4,0.9,1.9,1.5
				c0.5,0.6,0.9,1.4,1.1,2.3c0.2,0.9,0.4,1.9,0.4,2.9v1.4h-9.5c0,0.6,0.2,1.1,0.4,1.6c0.2,0.5,0.5,0.9,0.8,1.2
				c0.3,0.3,0.7,0.6,1.2,0.8c0.5,0.2,1,0.3,1.5,0.3c0.8,0,1.5-0.2,2.1-0.5c0.6-0.3,1.1-0.8,1.5-1.3l1.8,1.7c-0.2,0.4-0.5,0.7-0.9,1
				c-0.3,0.3-0.7,0.6-1.2,0.9c-0.5,0.3-1,0.5-1.6,0.6C70.1,28.2,69.5,28.3,68.7,28.3z"/>
		</defs>
		<clipPath id="SVGID_24_">
			<use xlink:href="#SVGID_23_"  style="overflow:visible;"/>
		</clipPath>
		<rect x="56.8" y="8.1" class="st11" width="22.7" height="25.2"/>
	</g>
</g>
<g>
	<defs>
		<rect id="SVGID_25_" x="-42" y="-33" width="1024" height="1758"/>
	</defs>
	<clipPath id="SVGID_26_">
		<use xlink:href="#SVGID_25_"  style="overflow:visible;"/>
	</clipPath>
	<g class="st12">
		<defs>
			<polyline id="SVGID_27_" points="81.3,18.2 84,13.4 87.6,13.4 83.2,20.6 87.8,28 84.2,28 81.3,23 78.4,28 74.8,28 79.4,20.6 
				75,13.4 78.5,13.4 81.3,18.2 			"/>
		</defs>
		<clipPath id="SVGID_28_">
			<use xlink:href="#SVGID_27_"  style="overflow:visible;"/>
		</clipPath>
		<rect x="69.8" y="8.4" class="st13" width="23" height="24.6"/>
	</g>
</g>
<g>
	<defs>
		<rect id="SVGID_29_" x="-42" y="-33" width="1024" height="1758"/>
	</defs>
	<clipPath id="SVGID_30_">
		<use xlink:href="#SVGID_29_"  style="overflow:visible;"/>
	</clipPath>
	<g class="st14">
		<defs>
			<path id="SVGID_31_" d="M104.2,22.9c0-0.4-0.1-0.7-0.2-1.1c-0.1-0.3-0.3-0.6-0.6-0.9c-0.3-0.3-0.7-0.5-1.3-0.7
				c-0.5-0.2-1.2-0.5-2.1-0.7c-0.9-0.3-1.8-0.6-2.6-1c-0.8-0.4-1.5-0.8-2-1.3c-0.6-0.5-1-1-1.3-1.6c-0.3-0.6-0.5-1.3-0.5-2.1
				c0-0.8,0.2-1.5,0.5-2.2c0.3-0.7,0.8-1.2,1.4-1.7c0.6-0.5,1.3-0.9,2.2-1.1c0.8-0.3,1.8-0.4,2.8-0.4c1.1,0,2.1,0.2,3,0.5
				c0.9,0.3,1.6,0.8,2.2,1.3c0.6,0.5,1.1,1.2,1.4,1.9c0.3,0.7,0.5,1.5,0.5,2.3h-3.4c0-0.5-0.1-0.9-0.2-1.3c-0.1-0.4-0.4-0.7-0.7-1
				c-0.3-0.3-0.7-0.5-1.2-0.7c-0.5-0.2-1-0.2-1.6-0.2c-0.6,0-1.1,0.1-1.6,0.2c-0.4,0.1-0.8,0.3-1.1,0.6c-0.3,0.2-0.5,0.5-0.6,0.9
				c-0.1,0.3-0.2,0.7-0.2,1.1c0,0.7,0.3,1.3,1,1.8c0.7,0.5,1.7,0.9,3.1,1.4c1.1,0.3,2,0.7,2.8,1.1c0.8,0.4,1.5,0.8,2,1.3
				c0.5,0.5,0.9,1.1,1.2,1.7c0.3,0.6,0.4,1.3,0.4,2.1c0,0.8-0.2,1.6-0.5,2.2c-0.3,0.7-0.8,1.2-1.4,1.7c-0.6,0.5-1.3,0.8-2.2,1.1
				c-0.9,0.2-1.8,0.4-2.9,0.4c-0.9,0-1.9-0.1-2.8-0.4c-0.9-0.3-1.7-0.6-2.4-1.2c-0.7-0.5-1.3-1.2-1.7-1.9c-0.4-0.8-0.7-1.7-0.7-2.7
				h3.4c0,0.6,0.1,1.2,0.3,1.6c0.2,0.4,0.5,0.8,0.9,1.1c0.4,0.3,0.8,0.5,1.3,0.6c0.5,0.1,1.1,0.2,1.7,0.2c1.2,0,2.1-0.2,2.7-0.7
				C103.9,24.3,104.2,23.7,104.2,22.9"/>
		</defs>
		<clipPath id="SVGID_32_">
			<use xlink:href="#SVGID_31_"  style="overflow:visible;"/>
		</clipPath>
		<rect x="88.1" y="3" class="st15" width="24.6" height="30.2"/>
	</g>
</g>
<g>
	<defs>
		<rect id="SVGID_33_" x="-42" y="-33" width="1024" height="1758"/>
	</defs>
	<clipPath id="SVGID_34_">
		<use xlink:href="#SVGID_33_"  style="overflow:visible;"/>
	</clipPath>
	<g class="st16">
		<defs>
			<path id="SVGID_35_" d="M115.7,25.6c0.4,0,0.8-0.1,1.1-0.2c0.3-0.1,0.6-0.3,0.9-0.5c0.3-0.2,0.5-0.5,0.6-0.8
				c0.2-0.3,0.2-0.6,0.3-1h3.1c0,0.7-0.2,1.4-0.5,2c-0.3,0.6-0.7,1.2-1.3,1.6c-0.5,0.5-1.1,0.8-1.9,1.1c-0.7,0.3-1.5,0.4-2.3,0.4
				c-1.1,0-2.1-0.2-2.9-0.6c-0.8-0.4-1.5-0.9-2.1-1.6c-0.5-0.7-1-1.4-1.2-2.3c-0.3-0.9-0.4-1.8-0.4-2.8v-0.5c0-1,0.1-1.9,0.4-2.8
				c0.3-0.9,0.7-1.7,1.2-2.3c0.5-0.7,1.2-1.2,2.1-1.6c0.8-0.4,1.8-0.6,2.9-0.6c0.9,0,1.7,0.1,2.4,0.4c0.7,0.3,1.3,0.6,1.8,1.1
				c0.5,0.5,0.9,1.1,1.2,1.7c0.3,0.7,0.4,1.4,0.5,2.2h-3.1c0-0.4-0.1-0.8-0.2-1.1c-0.1-0.4-0.3-0.7-0.6-0.9
				c-0.2-0.3-0.5-0.5-0.9-0.6c-0.3-0.2-0.7-0.2-1.2-0.2c-0.7,0-1.2,0.1-1.6,0.4c-0.4,0.3-0.8,0.6-1,1.1c-0.2,0.4-0.4,0.9-0.5,1.5
				c-0.1,0.6-0.1,1.1-0.1,1.7v0.5c0,0.6,0,1.2,0.1,1.7c0.1,0.6,0.3,1.1,0.5,1.5c0.2,0.4,0.6,0.8,1,1.1
				C114.5,25.5,115,25.6,115.7,25.6"/>
		</defs>
		<clipPath id="SVGID_36_">
			<use xlink:href="#SVGID_35_"  style="overflow:visible;"/>
		</clipPath>
		<rect x="104.1" y="8.1" class="st17" width="22.5" height="25.2"/>
	</g>
</g>
<g>
	<defs>
		<rect id="SVGID_37_" x="-42" y="-33" width="1024" height="1758"/>
	</defs>
	<clipPath id="SVGID_38_">
		<use xlink:href="#SVGID_37_"  style="overflow:visible;"/>
	</clipPath>
	<g class="st18">
		<defs>
			<path id="SVGID_39_" d="M126.7,15c0.5-0.6,1.1-1,1.8-1.4c0.7-0.3,1.4-0.5,2.3-0.5c0.7,0,1.3,0.1,1.9,0.3c0.6,0.2,1.1,0.5,1.5,1
				c0.4,0.4,0.7,1,0.9,1.7c0.2,0.7,0.3,1.5,0.3,2.5V28h-3.3v-9.4c0-1-0.2-1.7-0.6-2.1c-0.4-0.4-1.1-0.6-1.9-0.6
				c-0.7,0-1.3,0.2-1.7,0.5c-0.5,0.3-0.9,0.7-1.2,1.3V28h-3.3V7.2h3.3V15"/>
		</defs>
		<clipPath id="SVGID_40_">
			<use xlink:href="#SVGID_39_"  style="overflow:visible;"/>
		</clipPath>
		<rect x="118.5" y="2.2" class="st19" width="22" height="30.8"/>
	</g>
</g>
<g>
	<defs>
		<rect id="SVGID_41_" x="-42" y="-33" width="1024" height="1758"/>
	</defs>
	<clipPath id="SVGID_42_">
		<use xlink:href="#SVGID_41_"  style="overflow:visible;"/>
	</clipPath>
	<g class="st20">
		<defs>
			<path id="SVGID_43_" d="M140.3,20.8c0,0.7,0.1,1.3,0.2,1.9c0.1,0.6,0.3,1.1,0.6,1.5c0.3,0.4,0.6,0.8,1.1,1c0.4,0.3,1,0.4,1.6,0.4
				c0.6,0,1.1-0.1,1.6-0.4c0.4-0.3,0.8-0.6,1.1-1c0.3-0.4,0.5-0.9,0.6-1.5c0.1-0.6,0.2-1.2,0.2-1.9v-0.3c0-0.6-0.1-1.3-0.2-1.8
				c-0.1-0.6-0.4-1.1-0.6-1.5c-0.3-0.4-0.6-0.8-1.1-1c-0.4-0.3-1-0.4-1.6-0.4c-0.6,0-1.1,0.1-1.6,0.4c-0.4,0.3-0.8,0.6-1.1,1
				c-0.3,0.4-0.5,0.9-0.6,1.5c-0.1,0.6-0.2,1.2-0.2,1.8V20.8z M137,20.5c0-1.1,0.2-2,0.5-3c0.3-0.9,0.7-1.7,1.3-2.4
				c0.6-0.7,1.3-1.2,2.1-1.6c0.8-0.4,1.8-0.6,2.8-0.6c1.1,0,2,0.2,2.8,0.6c0.8,0.4,1.5,0.9,2.1,1.6c0.6,0.7,1,1.5,1.3,2.4
				s0.5,1.9,0.5,3v0.3c0,1.1-0.2,2-0.5,3c-0.3,0.9-0.7,1.7-1.3,2.4c-0.6,0.7-1.3,1.2-2.1,1.6c-0.8,0.4-1.8,0.6-2.8,0.6
				c-1.1,0-2-0.2-2.8-0.6c-0.8-0.4-1.5-0.9-2.1-1.6c-0.6-0.7-1-1.4-1.3-2.4c-0.3-0.9-0.5-1.9-0.5-3V20.5z"/>
		</defs>
		<clipPath id="SVGID_44_">
			<use xlink:href="#SVGID_43_"  style="overflow:visible;"/>
		</clipPath>
		<rect x="132" y="8.1" class="st21" width="23.5" height="25.2"/>
	</g>
</g>
<g>
	<defs>
		<rect id="SVGID_45_" x="-42" y="-33" width="1024" height="1758"/>
	</defs>
	<clipPath id="SVGID_46_">
		<use xlink:href="#SVGID_45_"  style="overflow:visible;"/>
	</clipPath>
	<g class="st22">
		<defs>
			<path id="SVGID_47_" d="M155,20.8c0,0.7,0.1,1.3,0.2,1.9c0.1,0.6,0.3,1.1,0.6,1.5c0.3,0.4,0.6,0.8,1.1,1c0.4,0.3,1,0.4,1.6,0.4
				c0.6,0,1.1-0.1,1.6-0.4c0.4-0.3,0.8-0.6,1.1-1c0.3-0.4,0.5-0.9,0.6-1.5c0.1-0.6,0.2-1.2,0.2-1.9v-0.3c0-0.6-0.1-1.3-0.2-1.8
				c-0.1-0.6-0.4-1.1-0.6-1.5c-0.3-0.4-0.6-0.8-1.1-1c-0.4-0.3-1-0.4-1.6-0.4c-0.6,0-1.1,0.1-1.6,0.4c-0.4,0.3-0.8,0.6-1.1,1
				c-0.3,0.4-0.5,0.9-0.6,1.5c-0.1,0.6-0.2,1.2-0.2,1.8V20.8z M151.8,20.5c0-1.1,0.2-2,0.5-3c0.3-0.9,0.7-1.7,1.3-2.4
				c0.6-0.7,1.3-1.2,2.1-1.6c0.8-0.4,1.8-0.6,2.8-0.6c1.1,0,2,0.2,2.8,0.6c0.8,0.4,1.5,0.9,2.1,1.6c0.6,0.7,1,1.5,1.3,2.4
				c0.3,0.9,0.5,1.9,0.5,3v0.3c0,1.1-0.2,2-0.5,3c-0.3,0.9-0.7,1.7-1.3,2.4c-0.6,0.7-1.3,1.2-2.1,1.6c-0.8,0.4-1.8,0.6-2.8,0.6
				c-1.1,0-2-0.2-2.8-0.6c-0.8-0.4-1.5-0.9-2.1-1.6c-0.6-0.7-1-1.4-1.3-2.4c-0.3-0.9-0.5-1.9-0.5-3V20.5z"/>
		</defs>
		<clipPath id="SVGID_48_">
			<use xlink:href="#SVGID_47_"  style="overflow:visible;"/>
		</clipPath>
		<rect x="146.8" y="8.1" class="st23" width="23.5" height="25.2"/>
	</g>
</g>
<g>
	<defs>
		<rect id="SVGID_49_" x="-42" y="-33" width="1024" height="1758"/>
	</defs>
	<clipPath id="SVGID_50_">
		<use xlink:href="#SVGID_49_"  style="overflow:visible;"/>
	</clipPath>
	<g class="st24">
		<defs>
			<rect id="SVGID_51_" x="166.6" y="7.2" width="3.3" height="20.8"/>
		</defs>
		<clipPath id="SVGID_52_">
			<use xlink:href="#SVGID_51_"  style="overflow:visible;"/>
		</clipPath>
		<rect x="161.6" y="2.2" class="st25" width="13.3" height="30.8"/>
	</g>
</g>
</svg>
